<svg width="364" height="168" viewBox="0 0 364 168" fill="none" xmlns="http://www.w3.org/2000/svg">
<g filter="url(#filter0_diin_74_246)">
<path d="M328 160C341.255 160 352 150.081 352 137.846V24C352 19.5817 348.418 16 344 16H328.045H236C223.5 16 205.077 38.1538 182 38.1538C158.923 38.1538 143 16 128 16H35.9551H20C15.5817 16 12 19.5817 12 24V137.846C12 150.081 22.7452 160 36 160H328Z" fill="url(#paint0_linear_74_246)"/>
<path d="M328 160C341.255 160 352 150.081 352 137.846V24C352 19.5817 348.418 16 344 16H328.045H236C223.5 16 205.077 38.1538 182 38.1538C158.923 38.1538 143 16 128 16H35.9551H20C15.5817 16 12 19.5817 12 24V137.846C12 150.081 22.7452 160 36 160H328Z" fill="url(#paint1_linear_74_246)"/>
</g>
<defs>
<filter id="filter0_diin_74_246" x="0" y="0" width="364" height="168" filterUnits="userSpaceOnUse" color-interpolation-filters="sRGB">
<feFlood flood-opacity="0" result="BackgroundImageFix"/>
<feColorMatrix in="SourceAlpha" type="matrix" values="0 0 0 0 0 0 0 0 0 0 0 0 0 0 0 0 0 0 127 0" result="hardAlpha"/>
<feOffset dy="-4"/>
<feGaussianBlur stdDeviation="6"/>
<feComposite in2="hardAlpha" operator="out"/>
<feColorMatrix type="matrix" values="0 0 0 0 0 0 0 0 0 0 0 0 0 0 0 0 0 0 0.4 0"/>
<feBlend mode="normal" in2="BackgroundImageFix" result="effect1_dropShadow_74_246"/>
<feBlend mode="normal" in="SourceGraphic" in2="BackgroundImageFix" result="shape"/>
<feColorMatrix in="SourceAlpha" type="matrix" values="0 0 0 0 0 0 0 0 0 0 0 0 0 0 0 0 0 0 127 0" result="hardAlpha"/>
<feOffset dy="2"/>
<feGaussianBlur stdDeviation="1"/>
<feComposite in2="hardAlpha" operator="arithmetic" k2="-1" k3="1"/>
<feColorMatrix type="matrix" values="0 0 0 0 0.301961 0 0 0 0 0.301961 0 0 0 0 0.301961 0 0 0 0.4 0"/>
<feBlend mode="normal" in2="shape" result="effect2_innerShadow_74_246"/>
<feColorMatrix in="SourceAlpha" type="matrix" values="0 0 0 0 0 0 0 0 0 0 0 0 0 0 0 0 0 0 127 0" result="hardAlpha"/>
<feOffset dx="-1" dy="-1"/>
<feGaussianBlur stdDeviation="2"/>
<feComposite in2="hardAlpha" operator="arithmetic" k2="-1" k3="1"/>
<feColorMatrix type="matrix" values="0 0 0 0 0 0 0 0 0 0 0 0 0 0 0 0 0 0 0.4 0"/>
<feBlend mode="normal" in2="effect2_innerShadow_74_246" result="effect3_innerShadow_74_246"/>
<feTurbulence type="fractalNoise" baseFrequency="2 2" stitchTiles="stitch" numOctaves="3" result="noise" seed="6524" />
<feComponentTransfer in="noise" result="coloredNoise1">
<feFuncR type="linear" slope="2" intercept="-0.5" />
<feFuncG type="linear" slope="2" intercept="-0.5" />
<feFuncB type="linear" slope="2" intercept="-0.5" />
<feFuncA type="discrete" tableValues="1 1 1 1 1 1 1 1 1 1 1 1 1 1 1 1 1 1 1 1 1 1 1 1 1 1 1 1 1 1 1 1 1 1 1 1 1 1 1 1 1 1 1 1 1 1 1 1 1 1 1 0 0 0 0 0 0 0 0 0 0 0 0 0 0 0 0 0 0 0 0 0 0 0 0 0 0 0 0 0 0 0 0 0 0 0 0 0 0 0 0 0 0 0 0 0 0 0 0 0 "/>
</feComponentTransfer>
<feComposite operator="in" in2="effect3_innerShadow_74_246" in="coloredNoise1" result="noise1Clipped" />
<feComponentTransfer in="noise1Clipped" result="color1">
<feFuncA type="table" tableValues="0 0.08" />
</feComponentTransfer>
<feMerge result="effect4_noise_74_246">
<feMergeNode in="effect3_innerShadow_74_246" />
<feMergeNode in="color1" />
</feMerge>
<feBlend mode="normal" in="effect4_noise_74_246" in2="effect1_dropShadow_74_246" result="effect4_noise_74_246"/>
</filter>
<linearGradient id="paint0_linear_74_246" x1="12" y1="16" x2="260.224" y2="255.227" gradientUnits="userSpaceOnUse">
<stop stop-color="#292929"/>
<stop offset="1" stop-color="#141414"/>
</linearGradient>
<linearGradient id="paint1_linear_74_246" x1="182" y1="160" x2="182" y2="88" gradientUnits="userSpaceOnUse">
<stop stop-opacity="0.4"/>
<stop offset="1" stop-opacity="0"/>
</linearGradient>
</defs>
</svg>
